<svg width="100" height="100" viewBox="0 0 100 100" fill="none" xmlns="http://www.w3.org/2000/svg">
<mask id="mask0_365_802" style="mask-type:alpha" maskUnits="userSpaceOnUse" x="0" y="0" width="100" height="100">
<rect width="100" height="100" fill="#D9D9D9"/>
</mask>
<g mask="url(#mask0_365_802)">
<path d="M58.7234 80C60.3546 80 61.7553 79.4107 62.9255 78.2321C64.0957 77.0536 64.6809 75.6429 64.6809 74C64.6809 72.3571 64.0957 70.9464 62.9255 69.7679C61.7553 68.5893 60.3546 68 58.7234 68C57.0922 68 55.6915 68.5893 54.5213 69.7679C53.3511 70.9464 52.766 72.3571 52.766 74C52.766 75.6429 53.3511 77.0536 54.5213 78.2321C55.6915 79.4107 57.0922 80 58.7234 80ZM81.0638 47C82.695 47 84.0958 46.4107 85.266 45.2321C86.4362 44.0536 87.0213 42.6429 87.0213 41C87.0213 39.3571 86.4362 37.9464 85.266 36.7679C84.0958 35.5893 82.695 35 81.0638 35C79.4326 35 78.0319 35.5893 76.8617 36.7679C75.6915 37.9464 75.1064 39.3571 75.1064 41C75.1064 42.6429 75.6915 44.0536 76.8617 45.2321C78.0319 46.4107 79.4326 47 81.0638 47ZM24.2553 38.6429H47.0213V35.6429H24.2553V38.6429ZM24.2553 55.7857H47.0213V52.7857H24.2553V55.7857ZM16.383 74.4286C14.539 74.4286 13.0142 73.8214 11.8085 72.6071C10.6028 71.3929 10 69.8571 10 68V23.4286C10 21.5714 10.6028 20.0357 11.8085 18.8214C13.0142 17.6071 14.539 17 16.383 17H77.6596C79.5036 17 81.0284 17.6071 82.2341 18.8214C83.4397 20.0357 84.0426 21.5714 84.0426 23.4286H81.0638C81.0638 22.5714 80.7092 21.7857 80 21.0714C79.2908 20.3571 78.5106 20 77.6596 20H16.383C15.5319 20 14.7518 20.3571 14.0426 21.0714C13.3333 21.7857 12.9787 22.5714 12.9787 23.4286V68C12.9787 68.8571 13.3333 69.6429 14.0426 70.3571C14.7518 71.0714 15.5319 71.4286 16.383 71.4286H41.2766V74.4286H16.383ZM58.7234 83C56.2411 83 54.1312 82.125 52.3936 80.375C50.656 78.625 49.7872 76.5 49.7872 74C49.7872 71.7143 50.4965 69.75 51.9149 68.1071C53.3333 66.4643 55.1064 65.4643 57.234 65.1071V56H79.5745V49.8929C77.4468 49.5357 75.6738 48.5357 74.2553 46.8929C72.8369 45.25 72.1277 43.2857 72.1277 41C72.1277 38.5 72.9965 36.375 74.734 34.625C76.4716 32.875 78.5816 32 81.0638 32C83.5461 32 85.656 32.875 87.3936 34.625C89.1312 36.375 90 38.5 90 41C90 43.2857 89.2908 45.25 87.8723 46.8929C86.4539 48.5357 84.6809 49.5357 82.5532 49.8929V59H60.2128V65.1071C62.3404 65.4643 64.1135 66.4643 65.5319 68.1071C66.9504 69.75 67.6596 71.7143 67.6596 74C67.6596 76.5 66.7908 78.625 65.0532 80.375C63.3156 82.125 61.2057 83 58.7234 83Z" fill="white"/>
</g>
</svg>
