<svg width="100" height="100" viewBox="0 0 100 100" fill="none" xmlns="http://www.w3.org/2000/svg">
<mask id="mask0_365_790" style="mask-type:alpha" maskUnits="userSpaceOnUse" x="0" y="0" width="100" height="100">
<rect width="100" height="100" fill="#D9D9D9"/>
</mask>
<g mask="url(#mask0_365_790)">
<path d="M30.2857 63.1786L43.3571 50.2143L51.9286 58.7857L69.9286 40.7857V51.5H72.9286V35.6429H57.0714V38.6429H67.7857L51.9286 54.5L43.3571 45.9286L28.25 61.1429L30.2857 63.1786ZM23.4286 83C21.5714 83 20.0357 82.3929 18.8214 81.1786C17.6071 79.9643 17 78.4286 17 76.5714V23.4286C17 21.5714 17.6071 20.0357 18.8214 18.8214C20.0357 17.6071 21.5714 17 23.4286 17H76.5714C78.4286 17 79.9643 17.6071 81.1786 18.8214C82.3929 20.0357 83 21.5714 83 23.4286V76.5714C83 78.4286 82.3929 79.9643 81.1786 81.1786C79.9643 82.3929 78.4286 83 76.5714 83H23.4286ZM23.4286 80H76.5714C77.4286 80 78.2143 79.6429 78.9286 78.9286C79.6429 78.2143 80 77.4286 80 76.5714V23.4286C80 22.5714 79.6429 21.7857 78.9286 21.0714C78.2143 20.3571 77.4286 20 76.5714 20H23.4286C22.5714 20 21.7857 20.3571 21.0714 21.0714C20.3571 21.7857 20 22.5714 20 23.4286V76.5714C20 77.4286 20.3571 78.2143 21.0714 78.9286C21.7857 79.6429 22.5714 80 23.4286 80Z" fill="white"/>
</g>
</svg>
