<svg width="100" height="100" viewBox="0 0 100 100" fill="none" xmlns="http://www.w3.org/2000/svg">
<mask id="mask0_365_796" style="mask-type:alpha" maskUnits="userSpaceOnUse" x="0" y="0" width="100" height="100">
<rect width="100" height="100" fill="#D9D9D9"/>
</mask>
<g mask="url(#mask0_365_796)">
<path d="M20.2069 86C18.4138 86 16.931 85.4138 15.7586 84.2414C14.5862 83.069 14 81.5862 14 79.7931V40.8966C14 39.1035 14.5862 37.6207 15.7586 36.4483C16.931 35.2759 18.4138 34.6897 20.2069 34.6897H42.9655V16.8966C42.9655 16.069 43.2414 15.3793 43.7931 14.8276C44.3448 14.2759 45.0345 14 45.8621 14H54.1379C54.9655 14 55.6552 14.2759 56.2069 14.8276C56.7586 15.3793 57.0345 16.069 57.0345 16.8966V34.6897H79.7931C81.5862 34.6897 83.069 35.2759 84.2414 36.4483C85.4138 37.6207 86 39.1035 86 40.8966V79.7931C86 81.5862 85.4138 83.069 84.2414 84.2414C83.069 85.4138 81.5862 86 79.7931 86H20.2069ZM20.2069 83.1035H79.7931C80.7586 83.1035 81.5517 82.7931 82.1724 82.1724C82.7931 81.5517 83.1035 80.7586 83.1035 79.7931V40.8966C83.1035 39.931 82.7931 39.1379 82.1724 38.5172C81.5517 37.8966 80.7586 37.5862 79.7931 37.5862H57.0345V41.7241C57.0345 42.4828 56.7414 43.1552 56.1552 43.7414C55.569 44.3276 54.8966 44.6207 54.1379 44.6207H45.8621C45.1035 44.6207 44.431 44.3276 43.8448 43.7414C43.2586 43.1552 42.9655 42.4828 42.9655 41.7241V37.5862H20.2069C19.2414 37.5862 18.4483 37.8966 17.8276 38.5172C17.2069 39.1379 16.8966 39.931 16.8966 40.8966V79.7931C16.8966 80.7586 17.2069 81.5517 17.8276 82.1724C18.4483 82.7931 19.2414 83.1035 20.2069 83.1035ZM26.8276 71.7241H48.3448V71.5172C48.3448 70.6207 48.1035 69.8103 47.6207 69.0862C47.1379 68.3621 46.4828 67.7931 45.6552 67.3793C44.3448 66.8276 43.0172 66.4138 41.6724 66.1379C40.3276 65.8621 38.9655 65.7241 37.5862 65.7241C36.2069 65.7241 34.8448 65.8621 33.5 66.1379C32.1552 66.4138 30.8276 66.8276 29.5172 67.3793C28.6897 67.7931 28.0345 68.3621 27.5517 69.0862C27.069 69.8103 26.8276 70.6207 26.8276 71.5172V71.7241ZM58.2759 65.3104H74.8276V62.4138H58.2759V65.3104ZM37.5862 62.4138C38.8276 62.4138 39.8966 61.9655 40.7931 61.069C41.6897 60.1724 42.1379 59.1035 42.1379 57.8621C42.1379 56.6207 41.6897 55.5517 40.7931 54.6552C39.8966 53.7586 38.8276 53.3103 37.5862 53.3103C36.3448 53.3103 35.2759 53.7586 34.3793 54.6552C33.4828 55.5517 33.0345 56.6207 33.0345 57.8621C33.0345 59.1035 33.4828 60.1724 34.3793 61.069C35.2759 61.9655 36.3448 62.4138 37.5862 62.4138ZM58.2759 56.2069H74.8276V53.3103H58.2759V56.2069ZM45.8621 41.7241H54.1379V16.8966H45.8621V41.7241Z" fill="white"/>
</g>
</svg>
