<svg width="100" height="100" viewBox="0 0 100 100" fill="none" xmlns="http://www.w3.org/2000/svg">
<mask id="mask0_365_784" style="mask-type:alpha" maskUnits="userSpaceOnUse" x="0" y="0" width="100" height="100">
<rect width="100" height="100" fill="#D9D9D9"/>
</mask>
<g mask="url(#mask0_365_784)">
<path d="M45.7143 58.1429C49.1429 58.1429 52.0714 56.9286 54.5 54.5C56.9286 52.0714 58.1429 49.1429 58.1429 45.7143C58.1429 42.2857 56.9286 39.3571 54.5 36.9286C52.0714 34.5 49.1429 33.2857 45.7143 33.2857C42.2857 33.2857 39.3571 34.5 36.9286 36.9286C34.5 39.3571 33.2857 42.2857 33.2857 45.7143C33.2857 49.1429 34.5 52.0714 36.9286 54.5C39.3571 56.9286 42.2857 58.1429 45.7143 58.1429ZM67.5714 69.7143L55.5714 57.6071C54.1429 58.75 52.6071 59.625 50.9643 60.2321C49.3214 60.8393 47.5714 61.1429 45.7143 61.1429C41.4286 61.1429 37.7857 59.6429 34.7857 56.6429C31.7857 53.6429 30.2857 50 30.2857 45.7143C30.2857 41.4286 31.7857 37.7857 34.7857 34.7857C37.7857 31.7857 41.4286 30.2857 45.7143 30.2857C50 30.2857 53.6429 31.7857 56.6429 34.7857C59.6429 37.7857 61.1429 41.4286 61.1429 45.7143C61.1429 47.5714 60.8393 49.3214 60.2321 50.9643C59.625 52.6071 58.75 54.1429 57.6071 55.5714L69.7143 67.5714L67.5714 69.7143ZM23.4286 83C21.5714 83 20.0357 82.3929 18.8214 81.1786C17.6071 79.9643 17 78.4286 17 76.5714V62.8571H20V76.5714C20 77.4286 20.3571 78.2143 21.0714 78.9286C21.7857 79.6429 22.5714 80 23.4286 80H37.1429V83H23.4286ZM62.8571 83V80H76.5714C77.4286 80 78.2143 79.6429 78.9286 78.9286C79.6429 78.2143 80 77.4286 80 76.5714V62.8571H83V76.5714C83 78.4286 82.3929 79.9643 81.1786 81.1786C79.9643 82.3929 78.4286 83 76.5714 83H62.8571ZM17 37.1429V23.4286C17 21.5714 17.6071 20.0357 18.8214 18.8214C20.0357 17.6071 21.5714 17 23.4286 17H37.1429V20H23.4286C22.5714 20 21.7857 20.3571 21.0714 21.0714C20.3571 21.7857 20 22.5714 20 23.4286V37.1429H17ZM80 37.1429V23.4286C80 22.5714 79.6429 21.7857 78.9286 21.0714C78.2143 20.3571 77.4286 20 76.5714 20H62.8571V17H76.5714C78.4286 17 79.9643 17.6071 81.1786 18.8214C82.3929 20.0357 83 21.5714 83 23.4286V37.1429H80Z" fill="white"/>
</g>
</svg>
